<?xml version="1.0" standalone="no"?>
<!DOCTYPE svg PUBLIC "-//W3C//DTD SVG 20010904//EN"
 "http://www.w3.org/TR/2001/REC-SVG-20010904/DTD/svg10.dtd">
<svg version="1.0" xmlns="http://www.w3.org/2000/svg"
 width="641.000000pt" height="804.000000pt" viewBox="0 0 641.000000 804.000000"
 preserveAspectRatio="xMidYMid meet">

<g transform="translate(0.000000,804.000000) scale(0.100000,-0.100000)"
fill="#000000" stroke="none">
<path d="M2047 7925 l-352 -111 -295 -144 c-162 -79 -296 -145 -298 -146 -12
-7 -248 -698 -323 -944 -25 -85 -41 -119 -85 -177 -30 -40 -65 -102 -78 -138
-13 -37 -26 -68 -28 -69 -1 -2 -68 -27 -148 -56 -80 -29 -151 -55 -157 -57 -7
-3 -53 -83 -103 -178 l-90 -172 0 -316 0 -315 25 -19 c24 -18 25 -22 65 -466
43 -480 45 -519 30 -563 -5 -16 -14 -48 -20 -72 -9 -33 -17 -46 -38 -53 -25
-9 -33 -26 -90 -202 l-63 -192 58 -481 58 -480 226 -212 226 -211 7 -57 c32
-270 242 -546 721 -947 70 -59 123 -111 128 -126 5 -14 63 -75 129 -136 92
-84 130 -112 162 -120 35 -9 100 -64 409 -350 l368 -340 115 -39 c96 -33 119
-38 135 -28 28 18 901 17 929 0 17 -11 38 -7 134 27 l115 40 367 340 c310 285
375 341 410 350 32 8 70 36 162 120 66 61 124 122 129 136 5 15 62 71 143 139
173 146 415 383 495 485 119 153 195 315 211 449 l7 57 226 211 226 212 58
485 57 486 -61 183 c-54 163 -64 184 -90 197 -20 11 -31 27 -39 58 -6 23 -15
55 -20 71 -15 44 -13 83 30 562 40 441 41 447 65 466 l25 19 0 316 0 316 -90
172 c-50 95 -96 175 -103 178 -6 2 -77 28 -157 57 -80 29 -147 54 -148 56 -2
1 -15 33 -28 69 -15 40 -46 95 -79 136 -43 56 -59 88 -80 157 -43 145 -200
616 -265 797 l-61 170 -304 147 c-304 147 -305 148 -642 253 l-338 105 -813 3
-812 2 -353 -110z m340 43 c-63 -163 -65 -169 -87 -408 -17 -185 -26 -240 -40
-261 -11 -16 -16 -36 -13 -55 4 -23 2 -26 -7 -14 -9 11 -13 12 -17 3 -6 -16
-463 -19 -463 -3 0 15 -143 13 -159 -2 -11 -11 -12 -6 -7 25 7 35 -6 53 -17
25 -3 -7 -4 -3 -4 9 1 12 5 19 9 17 4 -3 7 5 7 18 -2 26 116 438 128 448 7 6
95 35 471 152 18 5 39 11 45 12 7 2 19 6 27 9 92 35 135 43 127 25z m1168 2
c3 -5 15 -10 26 -10 16 0 18 -5 13 -27 -4 -15 -13 -34 -21 -41 -13 -14 -8 -64
9 -70 14 -6 9 -50 -8 -56 -9 -3 -173 -6 -365 -6 l-349 0 0 54 c0 30 5 58 10
61 7 4 7 12 0 25 -13 25 -13 48 3 65 10 12 70 14 344 15 211 0 334 -4 338 -10z
m525 -4 c25 -8 149 -47 275 -86 127 -40 253 -79 280 -87 28 -9 54 -19 58 -23
16 -15 117 -383 111 -406 -4 -17 -2 -24 9 -24 15 0 33 -58 28 -94 -2 -12 1
-16 10 -10 9 5 10 2 6 -10 -4 -10 -7 -28 -7 -42 0 -18 -4 -22 -17 -17 -11 4
-12 8 -5 11 7 2 12 8 12 13 0 6 -112 9 -285 9 -241 -1 -285 -3 -285 -16 0 -8
-7 -14 -15 -14 -9 0 -15 9 -15 25 0 16 -6 25 -15 25 -8 0 -15 5 -15 11 0 6 -7
9 -15 5 -8 -3 -15 -1 -15 5 0 6 -4 7 -10 4 -10 -6 -14 7 -11 33 1 8 -5 24 -13
37 -19 30 -20 36 -3 29 8 -3 14 2 14 10 0 8 -4 13 -9 10 -15 -10 -25 41 -42
236 -18 190 -27 232 -81 363 -9 21 -3 21 55 3z m-1670 -66 c0 -33 -3 -38 -17
-34 -17 5 -17 5 0 -9 25 -21 21 -46 -8 -53 -14 -4 -28 -4 -31 -1 -8 8 15 75
26 79 5 2 11 14 14 28 6 32 5 30 11 30 3 0 5 -18 5 -40z m1612 6 c7 4 8 2 4
-4 -11 -18 -26 -14 -25 6 0 10 3 12 6 4 2 -6 10 -9 15 -6z m37 -98 c1 -5 -3
-8 -9 -8 -5 0 -10 12 -9 28 0 24 1 25 9 7 5 -11 9 -23 9 -27z m-1698 -48 c-4
-3 -7 -78 -6 -168 2 -90 0 -183 -2 -206 -5 -38 -8 -43 -30 -43 -24 0 -24 0
-18 71 5 63 24 249 30 301 1 11 3 33 4 48 1 23 3 26 15 15 8 -7 11 -15 7 -18z
m1701 -7 c-5 -24 -6 -25 -12 -8 -8 21 -4 35 9 35 5 0 6 -12 3 -27z m-2382 -8
c-7 -8 -10 -15 -7 -15 5 0 -16 -85 -30 -120 -3 -8 -7 -19 -9 -25 -13 -52 -56
-203 -72 -255 -11 -36 -35 -114 -52 -175 -18 -60 -35 -114 -39 -120 -3 -5 -11
-32 -16 -60 -6 -30 -15 -49 -23 -48 -6 2 -12 -4 -12 -13 0 -8 -4 -13 -9 -9 -5
3 -12 1 -16 -5 -3 -5 3 -10 14 -10 24 0 28 -18 6 -26 -8 -4 -13 -10 -10 -14 3
-5 1 -11 -4 -15 -6 -3 -8 4 -6 16 3 13 0 28 -5 34 -5 6 -5 16 0 25 6 8 10 36
10 62 0 26 6 53 13 60 19 19 28 46 16 54 -5 3 -8 28 -6 55 2 28 -1 53 -6 56
-6 3 -7 1 -3 -5 4 -7 1 -12 -7 -12 -9 0 -16 16 -21 46 -9 72 -7 174 4 174 14
0 12 37 -2 44 -10 5 -10 7 0 12 8 4 12 30 12 78 0 77 12 100 55 108 11 1 23 7
26 11 5 7 195 104 208 106 2 1 -2 -6 -9 -14z m3100 -17 c0 -4 7 -8 16 -8 9 0
12 -5 8 -12 -4 -7 -3 -8 4 -4 14 8 104 -31 115 -50 4 -8 16 -14 25 -14 9 0 24
-5 32 -10 13 -9 13 -11 0 -20 -11 -7 -6 -10 23 -10 25 0 40 -5 44 -16 3 -8 12
-13 19 -10 7 3 16 1 19 -4 3 -4 -7 -7 -21 -5 l-26 2 7 -172 c6 -131 4 -178 -5
-196 -13 -23 -13 -23 -21 -4 -6 17 -8 17 -8 3 -1 -10 -7 -18 -13 -18 -15 0
-22 -61 -8 -70 5 -3 11 -38 12 -77 1 -40 4 -70 7 -68 4 2 4 -17 2 -41 -2 -29
-7 -42 -15 -38 -6 3 -3 -1 7 -9 18 -15 23 -52 8 -61 -5 -3 -11 3 -14 14 -3 13
-1 18 6 13 7 -3 5 2 -4 13 -22 27 -30 52 -18 60 6 3 3 11 -7 18 -11 9 -15 21
-11 35 3 14 -1 24 -11 30 -9 5 -14 13 -10 17 5 4 4 12 -1 18 -14 18 -43 127
-37 143 3 8 1 11 -4 8 -6 -3 -10 -4 -10 -2 0 5 -148 514 -159 548 -9 26 -8 26
20 16 16 -6 29 -15 29 -19z m-1205 12 c28 -7 28 -8 5 -9 l-25 -1 6 -97 c4 -54
7 -144 8 -200 1 -84 4 -103 16 -103 27 0 15 -17 -16 -24 -45 -9 -666 -6 -719
3 -39 7 -41 9 -12 10 31 1 32 3 32 41 0 22 -4 40 -10 40 -15 0 -13 137 3 143
9 4 9 8 -2 15 -11 8 -13 27 -8 86 3 47 2 78 -5 82 -6 4 -5 10 3 15 17 11 682
10 724 -1z m501 -112 c-4 -61 -3 -86 3 -73 l10 20 1 -20 c1 -11 3 -29 5 -40 2
-11 7 -55 11 -97 6 -69 5 -78 -10 -78 -11 0 -14 4 -10 13 6 9 4 9 -8 -1 -11
-9 -18 -10 -23 -2 -3 5 -2 10 2 10 5 0 7 81 5 180 -3 132 -1 180 8 180 8 0 10
-26 6 -92z m-506 -348 l35 -10 -3 -382 c-4 -427 0 -507 26 -509 9 -1 -1 -7
-23 -14 -25 -8 -32 -14 -20 -15 l20 -1 -20 -9 c-29 -12 -737 -12 -755 0 -12 8
-12 10 5 10 15 0 17 2 6 9 -11 7 -13 81 -9 445 2 240 1 436 -4 436 -4 0 -8 9
-8 19 0 15 8 21 33 24 71 9 684 6 717 -3z m-2018 -82 c-6 -6 -7 0 -4 19 5 21
7 23 10 9 2 -10 0 -22 -6 -28z m2639 3 c7 11 9 11 9 -3 0 -9 -4 -19 -9 -22 -9
-6 -22 17 -20 37 1 7 4 3 6 -7 4 -15 7 -16 14 -5z m-1971 -11 c-7 -4 -9 -13
-6 -19 4 -6 2 -19 -4 -28 -10 -16 -10 -15 -5 4 3 12 1 24 -4 28 -7 4 -7 11 2
19 6 8 16 12 21 9 4 -3 3 -9 -4 -13z m-620 -5 c0 -8 -7 -15 -15 -15 -8 0 -15
7 -15 15 0 8 7 15 15 15 8 0 15 -7 15 -15z m-260 -39 c0 -3 -4 -8 -10 -11 -5
-3 -10 -1 -10 4 0 6 5 11 10 11 6 0 10 -2 10 -4z m-110 -131 c-6 -8 -18 -11
-26 -8 -9 3 -12 0 -9 -9 3 -8 2 -33 -3 -56 -9 -40 -9 -41 12 -31 17 8 16 7 -4
-10 -16 -13 -27 -16 -31 -9 -4 7 -8 4 -10 -7 -3 -14 -9 -8 -24 21 -11 21 -23
41 -27 44 -13 10 31 49 65 56 4 1 10 3 15 4 4 2 14 4 22 4 8 1 14 8 12 15 -1
7 2 10 8 6 8 -5 8 -11 0 -20z m4050 -30 c31 -16 37 -29 20 -40 -6 -4 -17 -23
-26 -43 -9 -20 -18 -31 -21 -24 -3 6 -14 12 -26 12 -22 1 -22 1 -3 15 11 8 14
15 8 15 -7 0 -12 14 -12 34 0 29 7 40 28 45 2 1 16 -6 32 -14z m-4156 -106
c14 -20 12 -26 -26 -83 -23 -34 -45 -62 -50 -64 -4 -2 -8 -10 -8 -18 0 -8 -5
-14 -11 -14 -5 0 -7 5 -4 10 3 6 0 10 -8 10 -8 0 -17 7 -21 15 -7 20 12 72 30
79 7 3 11 12 8 19 -3 8 2 21 10 30 9 9 16 20 16 26 0 5 5 21 12 35 l11 26 13
-25 c7 -14 19 -34 28 -46z m1070 29 c-6 -71 -15 -99 -27 -92 -7 3 -3 -2 7 -10
25 -20 28 -52 24 -248 -2 -64 -5 -119 -8 -122 -5 -4 -19 1 -96 35 l-32 14 31
110 c17 61 33 112 37 115 3 3 7 19 8 35 1 17 6 31 12 33 5 2 7 9 4 16 -3 7 1
26 7 42 7 16 13 36 14 45 3 26 15 69 19 69 2 0 2 -19 0 -42z m3148 2 c2 -8 9
-21 16 -29 7 -7 11 -20 8 -28 -4 -9 -2 -11 6 -7 7 5 9 -1 4 -19 -4 -16 -1 -29
6 -33 8 -5 9 -2 5 9 -10 27 1 19 17 -12 14 -26 13 -30 -5 -50 -11 -11 -23 -21
-28 -21 -4 0 -28 31 -53 68 l-46 68 26 43 c24 40 37 44 44 11z m-1125 -22 c-3
-7 -5 -2 -5 12 0 14 2 19 5 13 2 -7 2 -19 0 -25z m42 -116 c-5 -2 -9 -8 -9
-13 0 -6 4 -8 10 -4 5 3 19 -27 30 -67 12 -40 30 -102 40 -138 11 -35 17 -66
15 -68 -2 -2 -15 -5 -28 -6 -14 0 -23 -4 -21 -7 3 -6 -29 -18 -48 -19 -6 0 -5
276 2 345 l1 20 8 -20 c5 -11 4 -21 0 -23z m770 -4 c0 -28 -2 -30 -9 -13 -12
28 -12 45 0 45 6 0 10 -15 9 -32z m409 -83 c1 -13 2 -28 3 -32 3 -17 -1 -33
-9 -33 -4 0 -8 8 -8 18 -1 9 -4 29 -9 45 -5 20 -4 27 7 27 7 0 15 -11 16 -25z
m-378 -26 c0 -6 -4 -7 -10 -4 -5 3 -10 11 -10 16 0 6 5 7 10 4 6 -3 10 -11 10
-16z m321 -26 c13 -16 12 -17 -3 -4 -10 7 -18 15 -18 17 0 8 8 3 21 -13z m49
-47 c0 -3 -4 -8 -10 -11 -5 -3 -10 -1 -10 4 0 6 5 11 10 11 6 0 10 -2 10 -4z
m-4477 -73 c-8 -3 -9 -12 -3 -27 6 -16 4 -32 -6 -51 -17 -34 -17 -35 1 -35 11
0 14 -10 12 -40 -2 -41 -5 -43 -60 -43 -23 0 -26 -2 -15 -15 9 -11 9 -14 1 -9
-6 4 -14 3 -18 -3 -4 -6 -11 -8 -16 -5 -5 4 -9 2 -9 -2 0 -8 -61 -36 -66 -30
-1 1 13 28 32 59 26 42 39 56 52 52 14 -5 15 -4 2 5 -13 9 -13 12 -1 23 12 11
13 10 6 -2 -5 -8 -4 -11 0 -7 5 4 10 13 11 20 2 14 44 87 50 87 2 0 -1 -11 -6
-25 -5 -14 -6 -27 0 -30 13 -8 22 12 19 43 -3 29 9 58 20 46 3 -4 1 -9 -6 -11z
m4574 -96 c-2 -6 8 -22 21 -36 52 -57 97 -120 90 -126 -5 -6 -91 26 -98 36 -3
4 -14 8 -25 11 -12 2 -19 10 -17 21 2 9 -3 17 -10 17 -9 0 -9 3 2 10 10 6 11
10 3 10 -7 0 -13 9 -13 20 0 11 -4 20 -10 20 -21 0 -10 39 13 42 25 4 49 -10
44 -25z m-3302 13 c3 -5 1 -10 -4 -10 -6 0 -11 5 -11 10 0 6 2 10 4 10 3 0 8
-4 11 -10z m1965 -4 c0 -2 -7 -7 -16 -10 -8 -3 -12 -2 -9 4 6 10 25 14 25 6z
m-2923 -48 c-14 -24 -46 -83 -72 -133 -25 -49 -52 -96 -58 -103 -6 -8 -12 -21
-13 -30 -2 -8 -9 -19 -16 -23 -7 -5 -9 -9 -5 -9 5 0 0 -12 -11 -27 -10 -16
-24 -43 -31 -60 -8 -18 -17 -33 -22 -33 -5 0 -8 -3 -8 -7 3 -20 -4 -33 -36
-69 -33 -35 -47 -62 -26 -50 5 4 4 -5 -2 -19 -7 -14 -18 -25 -25 -25 -7 0 -11
4 -7 9 3 5 1 12 -5 16 -13 8 -14 305 0 305 6 0 10 33 10 80 l0 80 -25 -16
c-13 -8 -32 -14 -42 -11 -25 5 30 29 74 31 17 0 29 4 26 9 -2 4 2 7 11 7 8 0
16 5 18 10 2 6 17 12 33 13 17 1 36 8 43 15 7 6 21 12 31 12 10 0 21 3 25 8 4
4 11 7 14 8 7 1 31 10 92 37 52 23 53 21 27 -25z m3928 11 c5 -5 17 -9 27 -9
10 0 18 -5 18 -11 0 -5 4 -8 9 -4 13 8 143 -44 159 -63 10 -13 12 -13 12 -1 1
10 3 9 11 -3 5 -10 15 -18 22 -18 7 0 6 4 -3 10 -17 11 -9 13 15 4 12 -5 13
-9 5 -14 -9 -6 -5 -13 14 -25 14 -10 26 -25 26 -35 0 -13 5 -17 20 -13 18 5
20 0 20 -41 0 -46 0 -46 -35 -46 l-35 0 0 -80 c0 -73 2 -80 20 -80 11 0 20 -6
20 -14 0 -7 -9 -16 -20 -19 -16 -4 -20 -14 -20 -46 0 -40 1 -41 35 -41 l35 0
0 -55 c0 -42 -3 -55 -15 -55 -9 0 -15 -9 -15 -22 -1 -19 -6 -14 -28 22 -15 25
-27 47 -27 50 -1 3 -8 19 -18 36 -9 17 -13 35 -9 39 4 5 1 4 -7 0 -11 -6 -13
-4 -8 9 4 9 3 15 -2 11 -5 -3 -16 8 -25 25 -8 17 -11 28 -7 26 4 -3 8 1 8 8 0
8 -6 12 -12 9 -12 -4 -39 49 -38 74 0 7 -2 11 -6 9 -9 -6 -210 366 -204 377 5
9 43 0 58 -14z m-3130 -20 c11 -16 1 -19 -13 -3 -7 8 -8 14 -3 14 5 0 13 -5
16 -11z m-1074 -16 c13 -16 12 -17 -3 -4 -17 13 -22 21 -14 21 2 0 10 -8 17
-17z m-278 -25 c-3 -13 -13 -29 -21 -35 -10 -8 -11 -13 -4 -13 7 0 12 -5 12
-11 0 -8 -4 -8 -14 1 -16 12 -12 35 12 63 20 22 21 22 15 -5z m5003 -6 c6 -4
14 -17 18 -29 11 -36 -20 -29 -33 7 -10 30 -6 36 15 22z m-2069 -22 c3 -11 9
-20 14 -20 5 0 9 -36 9 -80 0 -47 -4 -80 -10 -80 -6 0 -10 -33 -10 -80 0 -47
4 -80 10 -80 6 0 10 -33 10 -80 0 -47 -4 -80 -10 -80 -6 0 -10 -33 -10 -80 0
-47 4 -80 10 -80 6 0 10 -33 10 -80 0 -47 -4 -80 -10 -80 -6 0 -10 -45 -10
-115 0 -115 0 -116 -26 -125 -15 -6 -189 -10 -422 -10 -386 0 -398 1 -415 20
-16 19 -17 62 -17 525 0 457 2 505 16 505 10 0 14 6 11 14 -3 8 -3 17 0 20 4
3 195 6 426 6 410 0 419 0 424 -20z m-1616 -33 c-10 -9 -11 -8 -5 6 3 10 9 15
12 12 3 -3 0 -11 -7 -18z m2346 -1 c-3 -8 -3 -17 1 -20 3 -4 7 -15 9 -26 2
-13 -2 -18 -11 -14 -13 5 -14 19 -7 67 0 4 4 7 7 7 3 0 4 -6 1 -14z m1167 -4
c2 -4 -4 -9 -15 -9 -11 -1 -17 2 -14 8 7 11 22 12 29 1z m-3502 -65 c-18 -23
-21 -62 -6 -81 8 -11 14 -28 14 -38 0 -10 5 -18 11 -18 6 0 3 -7 -5 -16 -21
-20 -22 -84 -1 -84 19 0 20 -26 1 -33 -7 -3 -17 -22 -20 -42 -6 -30 -3 -40 13
-54 24 -21 28 -56 6 -65 -13 -4 -15 -39 -15 -226 0 -196 -2 -220 -16 -220 -14
0 -14 -3 -4 -15 8 -9 9 -15 2 -15 -6 0 -13 4 -16 9 -3 5 -21 9 -40 9 -19 0
-48 3 -66 7 -26 6 -31 11 -27 28 3 12 29 168 58 347 29 179 55 327 58 330 3 3
6 16 5 30 -1 77 45 226 54 176 2 -9 -1 -22 -6 -29z m-861 -50 c-6 -8 -7 -18
-3 -22 4 -5 1 -5 -6 -1 -10 6 -10 11 -1 22 6 8 14 14 16 14 3 0 0 -6 -6 -13z
m3206 -39 c-3 -8 -6 -5 -6 6 -1 11 2 17 5 13 3 -3 4 -12 1 -19z m-2416 -11
c-10 -9 -11 -8 -5 6 3 10 9 15 12 12 3 -3 0 -11 -7 -18z m-811 4 c0 -5 -7 -12
-16 -15 -14 -5 -15 -4 -4 9 14 17 20 19 20 6z m4115 -11 c3 -5 1 -10 -4 -10
-6 0 -11 5 -11 10 0 6 2 10 4 10 3 0 8 -4 11 -10z m-4075 -40 c0 -5 9 -10 20
-10 13 0 20 -7 20 -20 0 -20 7 -20 330 -20 287 0 330 -2 330 -15 0 -8 5 -15
11 -15 5 0 8 -4 4 -9 -3 -5 0 -13 6 -17 9 -5 10 2 6 24 -5 24 -3 32 8 32 14 0
21 -22 15 -45 -2 -5 -2 -22 -1 -37 1 -16 -4 -28 -10 -28 -5 0 -8 -8 -5 -17 6
-20 -76 -539 -87 -549 -9 -10 -762 12 -949 27 -126 10 -145 14 -140 28 3 8 37
72 75 141 38 69 87 160 108 203 21 42 44 77 49 77 6 0 9 4 5 9 -3 5 2 16 10
25 9 8 16 19 17 23 2 22 21 58 38 73 11 9 17 20 13 24 -6 6 35 10 70 7 20 -3
24 35 5 41 -8 3 -4 14 12 31 27 27 40 33 40 17z m4060 -21 c0 -6 7 -8 16 -5 8
3 21 0 27 -7 19 -20 40 -60 28 -52 -20 12 -11 -6 14 -29 13 -13 22 -26 18 -29
-3 -4 -1 -7 5 -7 10 0 22 -25 21 -43 0 -5 8 -15 18 -24 10 -8 12 -12 6 -8 -9
4 -11 1 -7 -9 3 -9 10 -16 14 -16 4 0 24 -30 43 -67 20 -38 72 -135 116 -218
l81 -150 -72 -7 c-143 -13 -447 -27 -735 -34 l-292 -7 -5 24 c-13 53 -78 467
-81 511 -1 25 -9 64 -15 84 -9 28 -10 39 -2 42 8 2 6 11 -4 28 -20 30 -1 32
20 2 9 -12 16 -18 16 -13 0 6 5 3 11 -5 8 -11 12 -12 16 -2 4 9 86 12 364 12
352 0 359 0 359 -20 0 -11 5 -20 10 -20 6 0 10 9 10 20 0 11 -4 20 -10 20 -5
0 -10 9 -10 20 0 11 5 20 10 20 6 0 10 -5 10 -11z m-4153 -21 c-3 -8 -6 -5 -6
6 -1 11 2 17 5 13 3 -3 4 -12 1 -19z m3320 -9 c1 -13 8 -58 16 -99 8 -41 18
-97 21 -123 4 -27 22 -139 41 -250 19 -110 33 -202 32 -204 -6 -5 -152 -31
-156 -27 -2 2 7 8 20 14 22 9 22 10 -6 5 l-30 -5 -3 155 c-2 102 1 155 8 155
6 0 10 61 10 173 0 100 4 166 9 158 7 -10 10 -10 16 -1 4 7 2 16 -5 20 -9 6
-9 9 -1 15 7 4 9 16 5 27 -4 15 -2 19 7 16 8 -3 15 -16 16 -29z m-3494 -239
c-5 -19 -23 -29 -23 -12 0 7 20 32 26 32 1 0 0 -9 -3 -20z m-46 -42 c-3 -8 -6
-5 -6 6 -1 11 2 17 5 13 3 -3 4 -12 1 -19z m8 -27 c3 -5 2 -12 -3 -15 -5 -3
-9 1 -9 9 0 17 3 19 12 6z m4660 -21 c3 -5 1 -18 -5 -27 -11 -17 -11 -16 -5 1
3 11 0 23 -7 28 -9 5 -10 8 -1 8 6 0 15 -4 18 -10z m72 -192 c-3 -8 -6 -5 -6
6 -1 11 2 17 5 13 3 -3 4 -12 1 -19z m-5062 -106 c-3 -3 -11 0 -18 7 -9 10 -8
11 6 5 10 -3 15 -9 12 -12z m5309 3 c-4 -8 -1 -15 5 -15 12 0 9 -420 -4 -440
-4 -6 -13 -9 -21 -6 -8 3 -24 1 -37 -4 -12 -6 -48 -14 -79 -18 l-58 -9 0 231
0 231 63 14 c34 7 72 14 85 15 12 0 22 4 22 9 0 4 7 7 15 7 9 0 12 -6 9 -15z
m-5201 -18 l57 -10 0 -231 0 -232 -36 4 c-26 3 -33 7 -23 14 10 6 7 7 -9 3
-33 -10 -114 16 -120 38 -2 9 -8 17 -13 17 -5 0 -9 45 -9 100 0 64 4 100 11
100 6 0 10 30 9 83 -2 119 -2 117 20 117 11 0 20 5 20 11 0 7 7 8 18 4 9 -4
43 -12 75 -18z m267 -28 c74 -5 312 -13 528 -16 l392 -6 0 -239 0 -239 -112 6
c-62 3 -246 10 -408 16 -162 5 -356 14 -430 19 -74 6 -143 10 -152 10 -17 0
-18 18 -18 235 l0 236 33 -6 c17 -3 93 -10 167 -16z m4730 -214 c0 -217 -1
-235 -17 -235 -10 0 -76 -4 -148 -10 -71 -5 -269 -14 -440 -19 -170 -6 -354
-13 -407 -16 l-98 -5 0 240 0 240 264 0 c146 0 356 5 468 11 171 9 233 14 366
28 9 1 12 -52 12 -234z m-3697 168 c26 -4 34 -9 25 -14 -9 -6 -10 -9 -1 -9 7
0 10 -7 7 -15 -4 -8 -1 -15 5 -15 6 0 11 -16 11 -35 0 -20 -5 -35 -11 -35 -9
0 -10 -37 -5 -137 4 -81 3 -144 -3 -152 -10 -15 -20 -18 -88 -28 l-43 -6 0
233 0 233 33 -7 c17 -4 49 -9 70 -13z m2577 -217 l0 -234 -42 5 c-24 3 -51 10
-60 14 -9 5 -25 6 -35 3 -10 -3 -14 -2 -8 3 7 5 7 51 1 141 -7 98 -6 142 2
166 19 52 16 86 -8 86 -65 0 52 45 128 49 l22 1 0 -234z m-880 145 c25 -5 35
-9 23 -10 -17 -1 -23 -7 -23 -26 0 -21 -5 -25 -27 -25 -22 0 -25 -2 -13 -10
10 -6 -127 -10 -397 -10 -269 0 -413 3 -413 10 0 6 -9 10 -20 10 -15 0 -20 7
-20 25 0 17 -6 25 -17 26 -12 1 -10 4 7 9 33 10 841 11 900 1z m-109 -173 l29
-10 -24 -19 c-23 -18 -45 -19 -346 -19 -286 0 -325 2 -351 17 -35 21 -37 30
-6 36 47 10 669 5 698 -5z m114 -67 c39 -8 39 -9 8 -10 -26 -1 -33 -5 -33 -21
0 -15 7 -20 28 -21 26 -1 25 -2 -8 -12 -41 -13 -808 -17 -882 -4 -38 7 -48 12
-48 28 0 13 7 19 23 20 20 2 20 2 -3 7 -23 4 -24 5 -5 13 26 10 869 10 920 0z
m625 -121 c236 -33 330 -36 715 -20 127 5 297 12 379 15 82 3 152 8 155 10 2
3 24 5 48 5 41 0 56 -14 36 -33 -3 -4 -5 -37 -4 -74 4 -124 -36 -460 -80 -678
-58 -284 -161 -645 -228 -799 -37 -84 -130 -234 -198 -319 -187 -233 -440
-421 -799 -594 l-134 -64 -77 58 c-43 32 -124 99 -180 150 l-102 93 -634 0
-635 0 -33 -38 c-48 -54 -151 -145 -237 -209 l-74 -55 -156 77 c-466 227 -749
476 -933 820 -58 109 -147 372 -208 615 -70 277 -136 673 -130 779 1 20 -1 43
-4 51 -3 8 -7 61 -10 118 l-4 102 44 0 c24 0 42 -3 40 -7 -3 -5 36 -8 86 -8
51 0 259 -6 464 -14 405 -15 487 -13 728 23 158 23 170 24 1057 25 l896 1 212
-30z m-2250 16 c0 -2 -9 -6 -20 -9 -11 -3 -20 -1 -20 4 0 5 9 9 20 9 11 0 20
-2 20 -4z m-1727 -178 c4 -10 8 -9 16 2 9 13 12 13 20 1 5 -7 13 -11 19 -7 5
3 15 -1 22 -9 7 -8 21 -15 31 -15 11 0 19 -3 20 -7 8 -57 9 -179 3 -245 -4
-36 -2 -58 4 -58 6 0 8 -8 6 -17 -4 -16 -17 -18 -92 -16 -57 1 -89 -2 -94 -10
-5 -8 -7 -4 -6 8 3 42 -2 76 -11 70 -16 -9 -19 6 -26 125 -4 63 -9 118 -11
122 -2 3 2 9 8 11 10 4 9 8 -2 16 -8 5 -11 14 -6 18 5 4 11 2 13 -4 7 -20 37
-15 53 7 17 23 26 25 33 8z m5760 0 c4 -10 8 -9 16 2 9 12 13 12 19 2 5 -7 13
-12 18 -11 5 1 19 1 31 0 21 -1 22 -5 19 -43 -3 -24 -7 -81 -10 -128 -10 -135
-17 -180 -30 -180 -6 0 -18 -9 -26 -19 -12 -18 -16 -18 -41 -5 -15 7 -35 11
-43 8 -9 -3 -16 -1 -16 6 0 6 -8 9 -17 6 -10 -3 -24 -2 -30 2 -17 11 -32 97
-26 147 2 22 6 62 7 88 2 29 9 52 17 58 8 5 10 9 6 9 -11 0 19 30 30 30 5 0
15 9 23 20 16 22 46 27 53 8z m-5616 -295 c-3 -10 -5 -2 -5 17 0 19 2 27 5 18
2 -10 2 -26 0 -35z m5493 -113 c0 -5 -4 -10 -10 -10 -5 0 -10 5 -10 10 0 6 5
10 10 10 6 0 10 -4 10 -10z m-5438 -344 c-2 -10 1 -15 6 -12 6 3 13 -1 16 -10
3 -8 2 -12 -4 -9 -6 3 -10 -1 -10 -9 0 -25 -44 -19 -69 10 -21 25 -22 26 -4
40 26 20 69 14 65 -10z m5433 8 c9 -9 15 -28 13 -43 -3 -22 -8 -26 -42 -29
-55 -5 -72 24 -38 66 20 26 45 28 67 6z m-5715 -70 c0 -8 5 -14 11 -14 14 0
59 -47 59 -61 0 -6 -5 -7 -11 -3 -7 4 -9 -2 -7 -17 3 -23 -4 -31 -67 -71 -10
-7 -25 -19 -33 -26 -16 -14 -32 -7 -32 14 0 8 -9 14 -20 14 -15 0 -19 6 -18
25 1 14 8 25 15 25 6 0 15 4 18 10 3 5 0 7 -9 4 -13 -5 -14 0 -6 28 6 18 10
35 10 37 0 2 3 2 6 -2 3 -3 19 10 36 29 30 33 48 37 48 8z m6002 -24 c-2 -17
0 -21 6 -12 6 9 15 -6 29 -49 24 -72 18 -105 -16 -102 -13 2 -20 -1 -16 -7 10
-16 -11 -12 -25 5 -7 8 -19 15 -26 15 -8 0 -14 3 -14 8 0 4 -14 13 -32 21 -28
13 -30 15 -12 22 19 7 19 8 -1 9 -11 2 -24 2 -30 0 -5 -1 -1 8 9 19 10 11 15
25 11 30 -3 6 -1 11 4 11 6 0 11 6 11 13 0 18 51 46 80 44 20 -2 24 -7 22 -27z
m-6099 -184 c4 -10 1 -13 -8 -9 -8 3 -12 9 -9 14 7 12 11 11 17 -5z m254 -343
c47 -22 73 -66 73 -125 0 -39 -6 -54 -31 -82 -50 -57 -126 -60 -188 -8 -27 22
-34 37 -38 76 -8 65 17 112 72 137 50 23 68 23 112 2z m5723 1 c57 -23 84 -70
77 -137 -4 -43 -10 -56 -38 -79 -62 -52 -139 -49 -189 8 -25 29 -30 43 -30 87
0 58 23 95 75 122 38 19 55 19 105 -1z m188 -129 c-3 -3 -9 2 -12 12 -6 14 -5
15 5 6 7 -7 10 -15 7 -18z m-6198 -6 c-9 -16 -8 -24 4 -38 19 -20 20 -31 5
-31 -5 0 -7 5 -3 12 5 7 2 9 -7 6 -11 -4 -14 1 -13 21 3 47 4 51 14 51 7 0 7
-7 0 -21z m6200 -20 c3 7 7 -2 7 -18 0 -17 -4 -28 -9 -25 -4 3 -8 0 -8 -5 0
-6 -5 -11 -11 -11 -7 0 -8 7 -4 18 4 9 8 26 7 37 0 12 2 14 5 6 4 -9 7 -10 13
-2z m-363 -74 c0 -8 -6 -15 -14 -15 -14 0 -17 12 -6 23 11 11 20 8 20 -8z
m-5817 -12 c0 -10 -7 -27 -15 -37 -14 -19 -15 -18 -15 10 0 17 3 34 7 37 12
12 23 7 23 -10z m6166 -98 c-8 -60 -14 -112 -14 -115 0 -3 0 -12 -1 -20 -1
-13 -2 -13 -12 0 -7 11 -8 5 -3 -21 3 -20 2 -39 -3 -42 -12 -8 -14 65 -1 80 5
7 7 21 3 33 -4 12 -1 28 7 37 10 14 10 15 0 9 -11 -6 -12 0 -6 31 4 21 9 49
10 63 3 52 5 56 14 35 8 -19 9 -18 9 4 1 13 3 22 6 19 3 -2 -2 -54 -9 -113z
m-6033 88 c38 -19 117 -19 157 2 16 8 31 15 33 15 9 0 42 -36 45 -50 2 -8 8
-16 13 -18 18 -7 9 -22 -14 -22 -13 0 -29 -6 -36 -12 -8 -7 -11 -8 -8 -3 3 6
-18 11 -54 13 -59 3 -113 -15 -132 -45 -12 -19 -27 -15 -27 7 0 22 20 72 33
81 5 3 -6 16 -25 27 -39 26 -30 29 15 5z m5810 -11 c60 3 82 -14 85 -69 3 -39
-1 -39 -53 -13 -47 24 -93 25 -142 5 -28 -12 -33 -12 -24 -1 6 7 8 21 5 31 -4
9 -2 20 5 24 7 4 13 17 14 29 1 19 3 20 30 6 17 -9 48 -14 80 -12z m92 18 c-3
-5 -12 -10 -18 -10 -7 0 -6 4 3 10 19 12 23 12 15 0z m-6022 -92 c6 -40 2 -49
-19 -41 -15 5 -18 33 -8 71 8 30 20 17 27 -30z m313 -30 c41 -28 54 -56 54
-115 0 -39 -5 -50 -39 -84 -32 -33 -45 -39 -79 -39 -89 0 -142 51 -142 135 0
42 5 52 39 86 34 35 44 39 87 39 33 0 58 -7 80 -22z m5666 -18 c33 -36 38 -47
38 -89 0 -79 -56 -131 -141 -131 -35 0 -48 6 -80 39 -35 35 -39 44 -39 91 0
47 4 56 39 91 35 35 43 39 91 39 49 0 56 -3 92 -40z m-5972 -41 c7 -11 9 -32
5 -47 l-6 -25 -15 28 c-16 31 -19 65 -4 65 5 0 14 -9 20 -21z m6 -90 c3 -6 0
-15 -7 -20 -10 -6 -11 -9 -1 -9 7 0 12 -13 12 -32 0 -24 -3 -29 -9 -18 -6 8
-7 18 -5 22 3 4 2 14 -2 20 -11 17 -12 48 -3 48 4 0 11 -5 15 -11z m24 -194
c0 -5 -5 -3 -10 5 -5 8 -10 20 -10 25 0 6 5 3 10 -5 5 -8 10 -19 10 -25z
m4420 -196 c0 -6 -4 -7 -10 -4 -5 3 -10 11 -10 16 0 6 5 7 10 4 6 -3 10 -11
10 -16z m-2576 -87 c2 -4 -5 -9 -17 -9 -17 -2 -19 0 -7 7 18 12 18 12 24 2z
m2397 -9 c13 -16 12 -17 -3 -4 -17 13 -22 21 -14 21 2 0 10 -8 17 -17z m-2352
-12 c9 -6 4 -10 -18 -13 -31 -4 -43 6 -18 15 18 8 21 8 36 -2z m2280 -19 c8 2
12 -58 14 -230 1 -127 -2 -232 -6 -232 -5 0 -5 -5 -1 -12 5 -7 11 -5 21 7 7
11 13 14 13 8 0 -11 -30 -40 -37 -35 -1 1 -9 2 -15 2 -9 0 -8 -4 2 -10 12 -8
12 -10 1 -10 -8 0 -20 -8 -27 -17 -11 -15 -16 -16 -33 -5 -18 10 -21 10 -21
-3 0 -8 -4 -15 -10 -15 -5 0 -10 -7 -10 -15 0 -8 -8 -15 -17 -15 -15 0 -16 -2
-3 -10 13 -8 12 -10 -2 -10 -10 0 -18 -5 -18 -11 0 -7 -10 -9 -27 -5 -18 4
-23 3 -15 -2 11 -8 9 -14 -9 -31 -25 -23 -39 -27 -39 -10 0 5 -5 7 -11 3 -8
-5 -8 -9 1 -14 7 -5 3 -12 -14 -23 -14 -10 -27 -17 -30 -17 -3 0 -17 -11 -32
-25 -25 -24 -33 -25 -138 -25 l-112 0 -32 34 c-31 33 -41 60 -24 68 4 2 40 47
81 101 40 54 80 101 87 104 8 3 14 10 14 16 0 5 19 34 43 63 23 29 53 69 67
88 14 19 36 38 50 42 21 5 22 7 8 13 -15 5 -14 11 11 48 16 23 32 39 36 35 5
-4 5 -1 1 6 -12 20 3 35 22 20 14 -10 15 -10 5 2 -16 18 -17 34 -1 24 7 -5 9
-2 5 9 -6 16 15 41 26 30 4 -3 7 -1 7 5 0 7 3 11 8 10 4 -1 24 6 46 15 26 12
43 14 55 7 14 -8 13 -10 -6 -16 -13 -3 -23 -11 -23 -16 0 -6 10 -8 23 -4 12 3
26 6 30 6 5 0 8 10 7 23 -4 40 -1 54 9 39 4 -7 13 -12 20 -10z m-2248 -11
c-11 -7 -6 -11 20 -16 19 -3 39 -5 44 -3 18 5 95 -32 95 -46 0 -8 4 -16 8 -18
10 -3 92 -131 92 -142 0 -4 7 -14 15 -23 8 -8 12 -19 9 -25 -4 -6 -2 -8 4 -4
10 6 72 -63 72 -81 0 -5 9 -16 20 -26 12 -10 18 -23 14 -29 -4 -6 -3 -8 4 -4
6 3 21 -8 33 -26 13 -18 26 -35 29 -38 20 -17 140 -180 140 -191 0 -7 -14 -28
-32 -46 l-32 -33 -112 0 c-80 0 -115 4 -121 13 -4 6 -24 20 -43 31 -19 10 -41
26 -47 34 -7 9 -13 12 -13 8 0 -5 -12 3 -26 18 -15 14 -33 26 -41 26 -9 0 -11
5 -7 13 4 6 4 9 -1 5 -4 -4 -22 2 -39 14 -35 25 -47 39 -40 49 2 4 -3 9 -11
13 -8 3 -15 0 -15 -6 0 -15 -47 29 -47 45 0 6 -4 83 -8 170 -5 114 -4 157 4
157 7 0 11 29 11 85 0 74 2 85 18 85 14 0 14 -2 3 -9z m2779 -71 c0 -5 -8 -10
-17 -10 -15 0 -16 2 -3 10 19 12 20 12 20 0z m-3295 -30 c3 -5 1 -10 -4 -10
-6 0 -11 5 -11 10 0 6 2 10 4 10 3 0 8 -4 11 -10z m45 -50 c0 -5 -2 -10 -4
-10 -3 0 -8 5 -11 10 -3 6 -1 10 4 10 6 0 11 -4 11 -10z m3123 -35 c-3 -9 -8
-14 -10 -11 -3 3 -2 9 2 15 9 16 15 13 8 -4z m-3058 -45 c3 -5 1 -10 -4 -10
-6 0 -11 5 -11 10 0 6 2 10 4 10 3 0 8 -4 11 -10z m53 -46 c-4 -3 -12 5 -18
18 -12 22 -12 22 6 6 10 -10 15 -20 12 -24z m37 -24 c10 -11 16 -20 13 -20 -3
0 -13 9 -23 20 -10 11 -16 20 -13 20 3 0 13 -9 23 -20z m40 -40 c3 -5 1 -10
-4 -10 -6 0 -11 5 -11 10 0 6 2 10 4 10 3 0 8 -4 11 -10z m2772 -5 c0 -8 -4
-12 -8 -9 -4 2 -15 -3 -23 -12 -17 -17 -19 -15 -10 10 3 9 10 13 15 10 5 -3 9
0 9 5 0 6 4 11 8 11 5 0 9 -7 9 -15z m-3892 -4 c3 -5 2 -12 -3 -15 -5 -3 -9 1
-9 9 0 17 3 19 12 6z m1182 -33 c26 -30 81 -78 89 -78 7 0 35 -28 34 -35 -1
-25 1 -29 10 -15 9 13 13 12 30 -8 10 -13 20 -22 22 -20 2 1 12 -6 23 -15 11
-9 39 -29 62 -44 23 -16 89 -59 147 -98 l105 -70 1 -175 0 -175 -111 -135
c-61 -74 -116 -134 -121 -132 -5 1 -7 -1 -4 -6 6 -11 -63 -98 -76 -94 -5 1 -7
-2 -4 -7 13 -20 -34 -39 -82 -33 -26 3 -49 8 -52 11 -3 4 -21 7 -40 7 -29 -1
-36 3 -38 22 -3 21 -22 32 -22 12 0 -5 -4 -10 -10 -10 -5 0 -10 9 -10 20 0 13
-7 20 -20 20 -20 0 -20 7 -20 470 0 421 2 470 16 470 18 0 44 23 44 40 0 6 7
19 16 28 11 10 13 17 5 20 -6 2 -11 12 -11 22 0 10 -8 21 -17 23 -14 4 -15 5
-2 6 8 0 24 -9 36 -21z m2613 12 c0 -5 -5 -10 -11 -10 -5 0 -7 5 -4 10 3 6 8
10 11 10 2 0 4 -4 4 -10z m-2535 -10 c3 -6 -1 -7 -9 -4 -18 7 -21 14 -7 14 6
0 13 -4 16 -10z m3755 0 c8 -5 11 -10 5 -10 -5 0 -17 5 -25 10 -8 5 -10 10 -5
10 6 0 17 -5 25 -10z m-5016 -16 c3 -8 2 -12 -4 -9 -6 3 -10 10 -10 16 0 14 7
11 14 -7z m3916 -10 c2 -3 -1 -14 -8 -24 -9 -15 -12 -148 -12 -530 0 -480 -1
-509 -17 -505 -10 3 -6 -1 10 -8 27 -13 27 -27 0 -27 -8 0 -11 5 -8 10 3 6 -1
10 -9 10 -8 0 -18 -4 -21 -10 -3 -5 -12 -10 -18 -10 -8 0 -8 3 2 9 9 6 5 9
-14 9 -17 0 -22 -3 -15 -8 16 -10 -5 -17 -93 -29 -69 -10 -97 -7 -97 10 0 5
-8 17 -17 28 -25 26 -79 91 -164 196 -40 50 -87 108 -106 129 l-33 40 0 177 0
178 47 28 c26 15 96 62 154 104 59 43 110 75 113 72 3 -4 6 -1 6 6 0 7 7 11
14 8 10 -4 13 -1 9 9 -3 7 0 14 5 14 6 0 22 11 36 25 16 16 31 23 43 19 15 -5
15 -4 3 4 -12 9 -9 13 13 21 15 6 27 15 27 21 0 5 6 10 14 10 8 0 16 7 19 15
5 11 18 13 59 9 29 -3 55 -8 58 -10z m-3890 -9 c0 -8 -4 -15 -10 -15 -5 0 -7
7 -4 15 4 8 8 15 10 15 2 0 4 -7 4 -15z m3703 0 c-3 -9 -8 -14 -10 -11 -3 3
-2 9 2 15 9 16 15 13 8 -4z m1280 9 c-7 -3 -9 -12 -6 -20 3 -8 1 -14 -4 -14
-5 0 -9 9 -10 20 -1 13 4 20 15 19 10 0 12 -3 5 -5z m-1303 -24 c0 -5 -2 -10
-4 -10 -3 0 -8 5 -11 10 -3 6 -1 10 4 10 6 0 11 -4 11 -10z m-2360 -25 c0 -14
-32 -10 -46 6 -17 19 -16 19 14 8 18 -6 32 -12 32 -14z m-1281 -18 c8 -10 7
-14 -2 -14 -8 0 -14 6 -14 14 0 7 1 13 2 13 2 0 8 -6 14 -13z m4911 -7 c-13
-24 -22 -27 -13 -3 5 11 3 14 -6 9 -7 -5 -11 -17 -8 -27 7 -24 -4 -31 -21 -13
-10 10 -10 14 -1 14 7 0 9 3 6 7 -8 7 23 32 41 33 10 0 10 -5 2 -20z m-4890
-45 c7 -13 17 -22 21 -19 5 3 6 -3 2 -13 -3 -10 -3 -15 2 -11 8 8 55 -44 55
-62 0 -6 5 -8 10 -5 6 3 10 2 10 -4 0 -6 16 -26 35 -46 20 -19 33 -40 30 -45
-4 -6 -11 -8 -16 -4 -5 3 -7 10 -4 15 4 5 -3 9 -14 9 -12 0 -20 3 -19 8 4 13
-13 52 -22 52 -5 0 -7 -8 -3 -17 3 -10 -3 -6 -15 9 -12 14 -22 30 -22 35 0 4
5 1 10 -7 5 -8 10 -10 10 -5 0 12 -36 45 -49 45 -11 0 -25 31 -22 49 1 7 -3
10 -9 6 -6 -4 -9 -1 -8 7 2 7 -3 12 -9 11 -7 -2 -13 2 -13 7 0 20 27 10 40
-15z m4803 -69 c-19 -28 -40 -51 -46 -51 -7 0 -11 -9 -9 -19 2 -10 -1 -16 -5
-13 -5 3 -22 -3 -39 -14 -27 -19 -28 -20 -4 -14 20 6 23 5 13 -5 -6 -7 -20
-10 -29 -6 -16 6 -15 10 11 35 17 15 43 44 59 64 16 20 33 34 38 31 4 -3 8 0
8 5 0 19 2 26 12 45 8 14 12 16 18 6 5 -8 -5 -32 -27 -64z m-1318 45 c-3 -6
-11 -11 -17 -11 -6 0 -6 6 2 15 14 17 26 13 15 -4z m-835 -130 c0 -5 7 -17 16
-25 8 -9 11 -16 5 -16 -6 0 -11 -54 -13 -140 -2 -107 0 -140 10 -140 6 0 12
-4 12 -10 0 -6 -92 -10 -255 -10 l-255 0 0 169 c0 126 3 171 13 174 23 10 467
7 467 -2z m2023 -47 c11 -11 -3 -24 -18 -18 -8 4 -12 10 -9 15 6 11 18 12 27
3z m-2795 -220 c-2 -56 0 -100 5 -97 4 2 7 -1 7 -6 0 -6 -4 -11 -9 -11 -5 0
-12 -10 -17 -22 -5 -14 -10 41 -11 146 -3 125 0 172 9 184 11 13 13 7 16 -39
2 -29 2 -99 0 -155z m1102 19 c0 -92 -3 -163 -7 -159 -5 4 -8 81 -8 171 0 90
3 161 8 158 4 -2 7 -79 7 -170z m-1140 -13 l0 -180 -105 0 -105 0 0 180 0 180
105 0 105 0 0 -180z m1360 0 l0 -180 -105 0 -105 0 0 180 0 180 105 0 105 0 0
-180z m1460 174 c0 -2 -9 -8 -19 -14 -14 -7 -22 -7 -27 2 -4 7 -3 8 4 4 7 -4
12 -3 12 2 0 5 7 9 15 9 8 0 15 -2 15 -3z m-2032 -270 c40 -8 61 -50 35 -70
-25 -19 -430 -19 -455 -1 -27 21 -28 63 0 70 26 7 385 8 420 1z m-724 -162
c-1 -2 -10 10 -19 27 -8 17 -12 31 -8 31 5 0 2 4 -4 8 -10 6 -9 13 5 30 17 21
17 20 23 -36 3 -31 4 -59 3 -60z m1046 92 c0 -8 -4 -12 -10 -9 -5 3 -10 10
-10 16 0 5 5 9 10 9 6 0 10 -7 10 -16z m14 -29 c-4 -8 -11 -15 -16 -15 -6 0
-5 6 2 15 7 8 14 15 16 15 2 0 1 -7 -2 -15z m-1071 -95 l49 -100 471 0 472 0
51 98 51 97 102 3 c77 2 101 0 101 -10 1 -67 -46 -516 -53 -511 -5 3 -6 -3 -3
-13 6 -18 -12 -19 -596 -19 -472 0 -602 -3 -606 -12 -5 -16 -182 -18 -182 -3
0 6 -9 10 -20 10 -11 0 -20 5 -20 11 0 6 -7 8 -15 5 -12 -4 -15 2 -14 27 0 17
-9 126 -20 242 -12 115 -21 224 -21 242 l0 33 103 0 102 -1 48 -99z m759 13
c3 -49 2 -91 -2 -96 -4 -4 -107 -6 -231 -5 l-224 3 -3 83 c-2 55 1 82 8 82 6
0 8 5 5 10 -4 7 71 10 218 10 l225 0 4 -87z m-988 -438 c25 -269 44 -490 43
-492 -2 -1 -51 44 -110 101 l-107 103 0 172 c0 107 -4 171 -10 171 -6 0 -10
33 -10 80 0 44 4 80 9 80 11 0 22 82 12 95 -4 5 -7 15 -7 21 1 14 76 111 76
98 0 -5 6 2 13 16 8 14 19 24 26 22 7 -1 10 2 6 8 -3 5 -3 15 1 22 4 7 9 8 11
3 1 -6 23 -230 47 -500z m1590 452 c20 -26 36 -52 36 -58 0 -5 5 -7 10 -4 6 4
17 -9 25 -27 8 -18 15 -28 16 -23 1 6 4 -3 8 -20 3 -16 11 -30 18 -30 6 0 15
-3 19 -7 4 -5 -1 -8 -11 -8 -14 0 -15 -3 -5 -15 11 -13 10 -14 -4 -9 -9 3 -16
10 -16 15 0 5 -4 9 -9 9 -12 0 5 -74 18 -78 14 -5 15 -142 1 -142 -6 0 -10
-33 -10 -80 0 -47 4 -80 10 -80 6 0 10 -21 10 -46 0 -25 5 -55 11 -66 9 -16 8
-19 -3 -12 -11 6 -11 5 0 -8 8 -10 9 -19 3 -22 -5 -4 -12 -2 -16 4 -4 6 -11 8
-16 4 -5 -3 -7 -9 -5 -13 3 -4 -6 -20 -20 -37 -14 -16 -23 -23 -19 -16 3 6 1
12 -4 12 -6 0 -11 -8 -11 -19 0 -22 -23 -44 -35 -33 -5 4 -5 2 -2 -4 8 -14
-62 -76 -76 -67 -5 3 -7 2 -4 -4 4 -5 -7 -22 -23 -38 l-29 -27 4 48 c4 49 33
374 60 689 17 190 26 268 30 263 1 -2 19 -24 39 -51z m710 -229 c-4 -6 -10 -5
-15 3 -7 11 -9 11 -9 1 0 -7 -5 -10 -11 -6 -8 4 -7 9 2 14 16 10 41 1 33 -12z
m-78 -20 c10 -13 12 -17 4 -10 -8 6 -23 12 -34 12 -17 0 -18 2 -6 10 8 5 15
10 16 10 0 0 9 -10 20 -22z m-2943 -5 c-7 -2 -19 -2 -25 0 -7 3 -2 5 12 5 14
0 19 -2 13 -5z m2037 -685 c0 -10 -4 -18 -10 -18 -5 0 -10 15 -10 33 0 24 3
28 10 17 5 -8 10 -23 10 -32z m-1090 7 c0 -16 -35 -21 -44 -6 -8 12 4 21 26
21 10 0 18 -7 18 -15z"/>
<path d="M1420 7610 c-9 -6 -10 -10 -3 -10 6 0 15 5 18 10 8 12 4 12 -15 0z"/>
<path d="M1431 7114 c0 -11 3 -14 6 -6 3 7 2 16 -1 19 -3 4 -6 -2 -5 -13z"/>
<path d="M1442 6995 c0 -16 2 -22 5 -12 2 9 2 23 0 30 -3 6 -5 -1 -5 -18z"/>
<path d="M4880 7666 c0 -2 7 -7 16 -10 8 -3 12 -2 9 4 -6 10 -25 14 -25 6z"/>
<path d="M1007 5943 c-4 -3 -7 -11 -7 -17 0 -6 5 -5 12 2 6 6 9 14 7 17 -3 3
-9 2 -12 -2z"/>
<path d="M1987 5921 c-4 -17 -3 -21 5 -13 5 5 8 16 6 23 -3 8 -7 3 -11 -10z"/>
<path d="M5331 5924 c0 -11 3 -14 6 -6 3 7 2 16 -1 19 -3 4 -6 -2 -5 -13z"/>
<path d="M2765 4930 c3 -5 8 -10 11 -10 2 0 4 5 4 10 0 6 -5 10 -11 10 -5 0
-7 -4 -4 -10z"/>
<path d="M5601 4804 c0 -11 3 -14 6 -6 3 7 2 16 -1 19 -3 4 -6 -2 -5 -13z"/>
<path d="M3448 4263 c6 -2 18 -2 25 0 6 3 1 5 -13 5 -14 0 -19 -2 -12 -5z"/>
<path d="M6160 4655 c0 -5 5 -17 10 -25 5 -8 10 -10 10 -5 0 6 -5 17 -10 25
-5 8 -10 11 -10 5z"/>
<path d="M4298 2163 c7 -3 16 -2 19 1 4 3 -2 6 -13 5 -11 0 -14 -3 -6 -6z"/>
<path d="M4298 2143 c7 -3 16 -2 19 1 4 3 -2 6 -13 5 -11 0 -14 -3 -6 -6z"/>
<path d="M2100 2251 c0 -5 5 -13 10 -16 6 -3 10 -2 10 4 0 5 -4 13 -10 16 -5
3 -10 2 -10 -4z"/>
<path d="M1910 790 l-25 -8 28 -1 c15 -1 27 4 27 9 0 6 -1 10 -2 9 -2 -1 -14
-5 -28 -9z"/>
<path d="M2506 1048 c-9 -12 -16 -32 -16 -44 0 -25 43 -64 71 -64 48 0 78 80
43 114 -24 24 -80 20 -98 -6z m74 -43 c0 -8 -5 -15 -11 -15 -5 0 -7 -6 -4 -12
4 -7 0 -4 -9 6 -8 10 -13 23 -10 27 9 15 34 10 34 -6z"/>
<path d="M3800 1050 c-27 -27 -25 -56 6 -85 34 -32 58 -32 89 0 29 28 31 51 9
83 -20 29 -76 30 -104 2z m74 -51 c-8 -14 -34 -11 -34 4 0 8 3 17 7 20 9 9 34
-13 27 -24z"/>
</g>
</svg>
